<mxfile host="app.diagrams.net" agent="Mozilla/5.0 (Windows NT 10.0; Win64; x64) AppleWebKit/537.36 (KHTML, like Gecko) Chrome/131.0.0.0 Safari/537.36" version="24.7.17">
  <diagram name="第 1 页" id="b3GTsi5MPIHmqamVs1ie">
    <mxGraphModel dx="339" dy="189" grid="1" gridSize="10" guides="1" tooltips="1" connect="1" arrows="1" fold="1" page="1" pageScale="1" pageWidth="827" pageHeight="1169" math="0" shadow="0">
      <root>
        <mxCell id="0" />
        <mxCell id="1" parent="0" />
        <mxCell id="urLSuqVCViKaopT8XHzy-44" value="" style="shape=parallelogram;perimeter=parallelogramPerimeter;whiteSpace=wrap;html=1;fixedSize=1;size=30;" vertex="1" parent="1">
          <mxGeometry x="461.25" y="280" width="98.75" height="60" as="geometry" />
        </mxCell>
        <mxCell id="urLSuqVCViKaopT8XHzy-43" value="" style="shape=parallelogram;perimeter=parallelogramPerimeter;whiteSpace=wrap;html=1;fixedSize=1;size=40;" vertex="1" parent="1">
          <mxGeometry x="440" y="170" width="150" height="80" as="geometry" />
        </mxCell>
        <mxCell id="urLSuqVCViKaopT8XHzy-42" value="" style="shape=parallelogram;perimeter=parallelogramPerimeter;whiteSpace=wrap;html=1;fixedSize=1;size=50;" vertex="1" parent="1">
          <mxGeometry x="410" y="60" width="220" height="100" as="geometry" />
        </mxCell>
        <mxCell id="rnBsw7AW5-7h32EFUdTK-43" value="&lt;font style=&quot;font-size: 40px;&quot;&gt;...&lt;/font&gt;" style="text;html=1;align=center;verticalAlign=middle;whiteSpace=wrap;rounded=0;" parent="1" vertex="1">
          <mxGeometry x="610" y="240" width="50" height="20" as="geometry" />
        </mxCell>
        <mxCell id="rnBsw7AW5-7h32EFUdTK-44" value="Activations of Layer 1" style="text;html=1;align=center;verticalAlign=middle;whiteSpace=wrap;rounded=0;" parent="1" vertex="1">
          <mxGeometry x="605" y="200" width="60" height="20" as="geometry" />
        </mxCell>
        <mxCell id="rnBsw7AW5-7h32EFUdTK-46" value="Activation Pixel" style="text;html=1;align=center;verticalAlign=middle;whiteSpace=wrap;rounded=0;" parent="1" vertex="1">
          <mxGeometry x="410" y="310" width="50" height="20" as="geometry" />
        </mxCell>
        <mxCell id="rnBsw7AW5-7h32EFUdTK-48" value="Receptive Field" style="text;html=1;align=center;verticalAlign=middle;whiteSpace=wrap;rounded=0;" parent="1" vertex="1">
          <mxGeometry x="610" y="150" width="50" height="20" as="geometry" />
        </mxCell>
        <mxCell id="rnBsw7AW5-7h32EFUdTK-51" value="" style="shape=curlyBracket;whiteSpace=wrap;html=1;rounded=1;flipH=1;labelPosition=right;verticalLabelPosition=middle;align=left;verticalAlign=middle;rotation=207;size=0.5;" parent="1" vertex="1">
          <mxGeometry x="491.99999999999994" y="67" width="11" height="21" as="geometry" />
        </mxCell>
        <mxCell id="rnBsw7AW5-7h32EFUdTK-53" value="" style="endArrow=classic;html=1;rounded=0;exitX=1;exitY=0.5;exitDx=0;exitDy=0;" parent="1" edge="1" source="rnBsw7AW5-7h32EFUdTK-46">
          <mxGeometry width="50" height="50" relative="1" as="geometry">
            <mxPoint x="450" y="320" as="sourcePoint" />
            <mxPoint x="485" y="319.89" as="targetPoint" />
          </mxGeometry>
        </mxCell>
        <mxCell id="rnBsw7AW5-7h32EFUdTK-54" value="Stride" style="text;html=1;align=center;verticalAlign=middle;whiteSpace=wrap;rounded=0;rotation=0;" parent="1" vertex="1">
          <mxGeometry x="451" y="63.99999999999999" width="50" height="20" as="geometry" />
        </mxCell>
        <mxCell id="urLSuqVCViKaopT8XHzy-3" style="rounded=0;orthogonalLoop=1;jettySize=auto;html=1;exitX=0;exitY=1;exitDx=0;exitDy=0;entryX=0;entryY=1;entryDx=0;entryDy=0;dashed=1;endArrow=none;endFill=0;" edge="1" parent="1" source="urLSuqVCViKaopT8XHzy-1" target="urLSuqVCViKaopT8XHzy-2">
          <mxGeometry relative="1" as="geometry" />
        </mxCell>
        <mxCell id="urLSuqVCViKaopT8XHzy-1" value="" style="shape=parallelogram;perimeter=parallelogramPerimeter;whiteSpace=wrap;html=1;fixedSize=1;size=10;fillColor=#B3B3B3;" vertex="1" parent="1">
          <mxGeometry x="480" y="310" width="30" height="20" as="geometry" />
        </mxCell>
        <mxCell id="urLSuqVCViKaopT8XHzy-2" value="" style="shape=parallelogram;perimeter=parallelogramPerimeter;whiteSpace=wrap;html=1;fixedSize=1;size=20;fillColor=#B3B3B3;" vertex="1" parent="1">
          <mxGeometry x="465" y="200" width="60" height="40" as="geometry" />
        </mxCell>
        <mxCell id="urLSuqVCViKaopT8XHzy-6" style="rounded=0;orthogonalLoop=1;jettySize=auto;html=1;exitX=0;exitY=1;exitDx=0;exitDy=0;entryX=0;entryY=1;entryDx=0;entryDy=0;dashed=1;endArrow=none;endFill=0;" edge="1" parent="1" source="urLSuqVCViKaopT8XHzy-12" target="urLSuqVCViKaopT8XHzy-2">
          <mxGeometry relative="1" as="geometry">
            <mxPoint x="440" y="160" as="sourcePoint" />
          </mxGeometry>
        </mxCell>
        <mxCell id="urLSuqVCViKaopT8XHzy-12" value="" style="shape=parallelogram;perimeter=parallelogramPerimeter;whiteSpace=wrap;html=1;fixedSize=1;size=30;fillColor=#B3B3B3;" vertex="1" parent="1">
          <mxGeometry x="450" y="90" width="90" height="60" as="geometry" />
        </mxCell>
        <mxCell id="urLSuqVCViKaopT8XHzy-31" style="rounded=0;orthogonalLoop=1;jettySize=auto;html=1;exitX=0;exitY=1;exitDx=0;exitDy=0;entryX=0;entryY=1;entryDx=0;entryDy=0;dashed=1;endArrow=none;endFill=0;" edge="1" parent="1" source="urLSuqVCViKaopT8XHzy-32" target="urLSuqVCViKaopT8XHzy-34">
          <mxGeometry relative="1" as="geometry" />
        </mxCell>
        <mxCell id="urLSuqVCViKaopT8XHzy-32" value="" style="shape=parallelogram;perimeter=parallelogramPerimeter;whiteSpace=wrap;html=1;fixedSize=1;size=10;fillColor=#B3B3B3;" vertex="1" parent="1">
          <mxGeometry x="510" y="290" width="30" height="20" as="geometry" />
        </mxCell>
        <mxCell id="urLSuqVCViKaopT8XHzy-33" style="rounded=0;orthogonalLoop=1;jettySize=auto;html=1;exitX=1;exitY=0;exitDx=0;exitDy=0;entryX=1;entryY=0;entryDx=0;entryDy=0;dashed=1;endArrow=none;endFill=0;" edge="1" parent="1" source="urLSuqVCViKaopT8XHzy-34" target="urLSuqVCViKaopT8XHzy-32">
          <mxGeometry relative="1" as="geometry" />
        </mxCell>
        <mxCell id="urLSuqVCViKaopT8XHzy-34" value="" style="shape=parallelogram;perimeter=parallelogramPerimeter;whiteSpace=wrap;html=1;fixedSize=1;size=20;fillColor=#B3B3B3;" vertex="1" parent="1">
          <mxGeometry x="495" y="180" width="60" height="40" as="geometry" />
        </mxCell>
        <mxCell id="urLSuqVCViKaopT8XHzy-35" style="rounded=0;orthogonalLoop=1;jettySize=auto;html=1;exitX=0;exitY=1;exitDx=0;exitDy=0;entryX=0;entryY=1;entryDx=0;entryDy=0;dashed=1;endArrow=none;endFill=0;" edge="1" parent="1" source="urLSuqVCViKaopT8XHzy-37" target="urLSuqVCViKaopT8XHzy-34">
          <mxGeometry relative="1" as="geometry">
            <mxPoint x="470" y="140" as="sourcePoint" />
          </mxGeometry>
        </mxCell>
        <mxCell id="urLSuqVCViKaopT8XHzy-36" style="rounded=0;orthogonalLoop=1;jettySize=auto;html=1;exitX=1;exitY=0;exitDx=0;exitDy=0;entryX=1;entryY=0;entryDx=0;entryDy=0;dashed=1;endArrow=none;endFill=0;" edge="1" parent="1" source="urLSuqVCViKaopT8XHzy-37" target="urLSuqVCViKaopT8XHzy-34">
          <mxGeometry relative="1" as="geometry">
            <mxPoint x="560" y="80" as="sourcePoint" />
          </mxGeometry>
        </mxCell>
        <mxCell id="urLSuqVCViKaopT8XHzy-37" value="" style="shape=parallelogram;perimeter=parallelogramPerimeter;whiteSpace=wrap;html=1;fixedSize=1;size=30;fillColor=#B3B3B3;" vertex="1" parent="1">
          <mxGeometry x="480" y="70" width="90" height="60" as="geometry" />
        </mxCell>
        <mxCell id="urLSuqVCViKaopT8XHzy-38" value="" style="shape=parallelogram;perimeter=parallelogramPerimeter;whiteSpace=wrap;html=1;fixedSize=1;size=10;fillColor=#666666;" vertex="1" parent="1">
          <mxGeometry x="495" y="200" width="30" height="20" as="geometry" />
        </mxCell>
        <mxCell id="urLSuqVCViKaopT8XHzy-8" style="rounded=0;orthogonalLoop=1;jettySize=auto;html=1;exitX=1;exitY=0;exitDx=0;exitDy=0;entryX=1;entryY=0;entryDx=0;entryDy=0;dashed=1;endArrow=none;endFill=0;" edge="1" parent="1" source="urLSuqVCViKaopT8XHzy-2" target="urLSuqVCViKaopT8XHzy-1">
          <mxGeometry relative="1" as="geometry" />
        </mxCell>
        <mxCell id="urLSuqVCViKaopT8XHzy-7" style="rounded=0;orthogonalLoop=1;jettySize=auto;html=1;exitX=1;exitY=0;exitDx=0;exitDy=0;entryX=1;entryY=0;entryDx=0;entryDy=0;dashed=1;endArrow=none;endFill=0;" edge="1" parent="1" source="urLSuqVCViKaopT8XHzy-12" target="urLSuqVCViKaopT8XHzy-2">
          <mxGeometry relative="1" as="geometry">
            <mxPoint x="530" y="100" as="sourcePoint" />
          </mxGeometry>
        </mxCell>
        <mxCell id="urLSuqVCViKaopT8XHzy-39" value="" style="shape=parallelogram;perimeter=parallelogramPerimeter;whiteSpace=wrap;html=1;fixedSize=1;size=20;fillColor=#666666;" vertex="1" parent="1">
          <mxGeometry x="480" y="90" width="60" height="40" as="geometry" />
        </mxCell>
        <mxCell id="urLSuqVCViKaopT8XHzy-40" value="" style="endArrow=classic;html=1;rounded=0;exitX=0;exitY=0.75;exitDx=0;exitDy=0;" edge="1" parent="1" source="rnBsw7AW5-7h32EFUdTK-48">
          <mxGeometry width="50" height="50" relative="1" as="geometry">
            <mxPoint x="595" y="155" as="sourcePoint" />
            <mxPoint x="555" y="105" as="targetPoint" />
          </mxGeometry>
        </mxCell>
        <mxCell id="urLSuqVCViKaopT8XHzy-47" value="Activations of Layer N" style="text;html=1;align=center;verticalAlign=middle;whiteSpace=wrap;rounded=0;" vertex="1" parent="1">
          <mxGeometry x="600" y="300" width="70" height="20" as="geometry" />
        </mxCell>
        <mxCell id="urLSuqVCViKaopT8XHzy-48" value="Input Image&lt;div&gt;&lt;br&gt;&lt;/div&gt;" style="text;html=1;align=center;verticalAlign=middle;whiteSpace=wrap;rounded=0;" vertex="1" parent="1">
          <mxGeometry x="610" y="100" width="50" height="20" as="geometry" />
        </mxCell>
        <mxCell id="urLSuqVCViKaopT8XHzy-49" value="&lt;font style=&quot;font-size: 40px;&quot;&gt;...&lt;/font&gt;" style="text;html=1;align=center;verticalAlign=middle;whiteSpace=wrap;rounded=0;" vertex="1" parent="1">
          <mxGeometry x="485.63" y="240" width="50" height="20" as="geometry" />
        </mxCell>
      </root>
    </mxGraphModel>
  </diagram>
</mxfile>
